# xmcd CD database file
#
# Track frame offsets:
#	150
#	69837
#	95685
#	128305
#	160635
#
# Disc length: 2714 seconds
#
# Revision: 0
# Processed by: cddbd v1.5.1PL0 Copyright (c) Steve Scherf et al.
# Submitted via: CDex 1.51
#
DISCID=2f0a9805
DTITLE=New York Jazz Quartet - Blues For Sarka
DYEAR=1978
DGENRE=Jazz
TTITLE0=All Blues
TTITLE1=Rodney Round Robin
TTITLE2=I'll Tell You Tonite
TTITLE3=Blues For Sarka
TTITLE4=Smelly Jelly Belly
EXTD=YEAR: 1978
EXTT0=
EXTT1=
EXTT2=
EXTT3=
EXTT4=
PLAYORDER=
